<?xml version="1.0" standalone="no"?>
<!DOCTYPE svg PUBLIC "-//W3C//DTD SVG 20010904//EN"
 "http://www.w3.org/TR/2001/REC-SVG-20010904/DTD/svg10.dtd">
<svg version="1.0" xmlns="http://www.w3.org/2000/svg"
 width="678.000000pt" height="755.000000pt" viewBox="0 0 678.000000 755.000000"
 preserveAspectRatio="xMidYMid meet">

<g transform="translate(0.000000,755.000000) scale(0.100000,-0.100000)"
fill="#000000" stroke="none">
<path d="M3849 7209 c-58 -4 -132 -13 -165 -19 -32 -5 -131 -17 -219 -25 -205
-19 -381 -55 -440 -90 -67 -39 -60 -60 12 -30 19 8 63 15 97 15 l61 0 -25 -20
c-14 -11 -36 -23 -49 -26 -35 -10 -111 -54 -111 -66 0 -5 5 -18 10 -28 9 -17
6 -20 -17 -25 -16 -3 -44 -10 -63 -15 -125 -34 -325 -78 -328 -72 -4 14 -76 0
-97 -18 -11 -9 -28 -20 -38 -23 -10 -4 -25 -20 -35 -37 -12 -22 -24 -30 -44
-30 -16 0 -28 -4 -28 -8 0 -5 -11 -14 -25 -20 -14 -7 -34 -25 -43 -41 -9 -17
-25 -32 -34 -35 -11 -2 -21 -18 -25 -36 -6 -31 -7 -32 -47 -27 -32 5 -45 2
-61 -13 -11 -11 -35 -32 -52 -46 -18 -14 -33 -33 -33 -42 0 -8 -3 -13 -6 -9
-4 3 -29 -6 -56 -20 -42 -22 -55 -35 -73 -77 -12 -28 -25 -50 -29 -48 -19 7
-26 0 -20 -23 5 -22 3 -24 -23 -22 -26 2 -28 -1 -31 -40 -3 -36 -7 -43 -24
-43 -24 0 -97 -40 -131 -73 -24 -22 -107 -141 -107 -152 0 -3 -22 -38 -48 -78
-86 -127 -162 -307 -162 -383 0 -11 -16 -49 -35 -84 -19 -36 -35 -72 -35 -81
0 -9 -6 -22 -14 -29 -24 -19 -67 -146 -87 -253 -10 -56 -26 -127 -35 -157 -11
-39 -17 -108 -20 -240 -3 -102 -6 -232 -7 -290 -2 -78 1 -109 11 -122 10 -11
12 -29 8 -50 -20 -107 -24 -174 -17 -259 4 -52 4 -104 -1 -117 -6 -17 -4 -24
7 -27 50 -16 47 -8 38 -123 -13 -165 -6 -292 17 -353 11 -28 29 -84 40 -125
22 -80 85 -210 95 -194 4 6 3 19 0 30 -35 109 -15 506 27 558 11 13 14 0 19
-74 3 -49 1 -120 -4 -159 -14 -110 -10 -167 20 -232 14 -32 32 -62 40 -66 7
-4 13 -17 13 -28 0 -11 8 -23 18 -26 9 -4 30 -19 45 -35 33 -32 53 -36 61 -10
3 10 2 94 -4 187 -18 317 -10 472 36 720 26 138 108 398 135 431 14 17 69 132
69 145 0 6 11 33 25 61 14 27 25 55 25 63 0 7 6 18 14 24 9 8 17 42 21 89 8
93 20 134 44 156 11 10 24 44 31 84 7 37 17 75 22 85 9 17 11 17 29 -4 10 -12
19 -17 19 -11 0 6 14 -2 31 -18 29 -26 33 -27 48 -13 9 9 14 27 13 40 -5 33
23 30 59 -6 l29 -29 0 28 c0 16 -7 57 -16 91 -15 60 -15 129 2 195 5 20 7 20
44 8 22 -8 70 -16 107 -19 37 -3 87 -7 110 -10 25 -4 44 -2 48 5 10 16 65 2
95 -24 22 -18 86 -38 193 -61 23 -5 27 -9 21 -27 -4 -12 -2 -18 4 -14 5 3 12
-2 15 -13 2 -11 17 -21 37 -24 28 -6 31 -9 19 -23 -11 -14 -11 -18 4 -29 9 -6
14 -15 10 -18 -7 -8 35 -44 62 -53 34 -12 75 -47 75 -65 0 -10 5 -21 11 -25 7
-4 9 -24 6 -51 -3 -31 -1 -46 8 -49 10 -4 10 -11 1 -29 -9 -19 -18 -23 -58
-23 -29 -1 -51 5 -58 14 -19 22 -30 17 -30 -14 l0 -28 -62 4 c-35 3 -66 10
-70 16 -5 7 -8 7 -8 -3 0 -11 -3 -11 -15 -1 -9 7 -19 10 -23 6 -7 -8 -8 -12
-11 -39 -2 -24 -40 -60 -56 -53 -8 3 -15 2 -15 -2 0 -9 -49 -32 -68 -32 -8 0
-23 -12 -34 -26 -11 -14 -26 -23 -32 -21 -7 3 -35 0 -62 -5 -27 -6 -62 -12
-79 -13 -18 -2 -41 -16 -58 -35 -18 -20 -35 -30 -46 -27 -14 3 -17 -1 -13 -19
3 -17 -3 -26 -27 -38 -33 -17 -42 -46 -15 -46 11 0 14 -6 9 -20 -5 -17 -2 -20
24 -20 38 0 81 -19 81 -37 0 -14 1 -15 48 -19 19 -1 41 -9 51 -18 10 -9 23
-16 29 -16 16 0 15 -11 -3 -33 -7 -11 -17 -38 -20 -60 -8 -46 -29 -77 -54 -77
-9 0 -32 -14 -50 -31 -20 -17 -40 -28 -49 -24 -8 3 -24 -4 -36 -15 -55 -52
-76 -68 -154 -118 -38 -24 -63 -64 -49 -78 7 -7 88 -7 192 1 81 7 95 5 130
-14 22 -11 44 -21 50 -21 17 0 41 -34 41 -58 0 -23 -1 -23 -87 -16 -98 7 -121
-4 -63 -32 30 -15 33 -19 19 -27 -9 -5 -32 -9 -51 -9 -19 0 -34 -4 -34 -9 0
-5 7 -9 15 -9 8 0 15 -5 15 -11 0 -7 8 -18 18 -25 15 -12 15 -15 2 -24 -13 -9
-12 -12 5 -22 11 -7 31 -13 45 -13 20 0 25 -5 25 -24 0 -17 10 -30 33 -43 18
-10 38 -17 45 -15 8 1 13 -14 15 -40 2 -24 8 -43 14 -43 20 0 2 -104 -26 -144
-14 -20 -22 -44 -19 -52 3 -8 -1 -14 -11 -14 -9 0 -16 -8 -16 -17 0 -10 -7
-36 -15 -58 -8 -22 -14 -53 -15 -70 0 -16 -7 -41 -15 -55 -8 -14 -17 -31 -21
-38 -3 -7 4 -20 17 -31 l24 -19 -23 -18 c-17 -15 -23 -31 -24 -69 -2 -50 -16
-83 -52 -119 -13 -13 -16 -21 -8 -24 18 -6 15 -40 -6 -70 -10 -15 -19 -45 -21
-66 -1 -21 -7 -48 -13 -60 -11 -19 -15 -50 -21 -146 -1 -19 -10 -50 -19 -69
-10 -18 -15 -39 -11 -45 4 -6 9 -33 11 -60 4 -53 26 -96 48 -96 14 0 16 -4 19
-53 1 -15 7 -33 14 -40 6 -6 11 -19 11 -29 0 -10 10 -22 22 -27 13 -5 17 -10
10 -15 -8 -4 -8 -15 0 -36 5 -17 7 -47 4 -68 -3 -20 -7 -65 -8 -100 -3 -57 -1
-64 21 -79 23 -15 23 -17 7 -29 -19 -14 -14 -30 15 -52 11 -7 17 -24 17 -42
-1 -39 5 -44 32 -28 18 11 23 10 37 -7 11 -14 17 -16 20 -7 3 6 22 15 44 18
24 4 39 12 39 21 0 7 8 16 18 20 24 8 62 44 62 58 0 7 9 23 20 37 26 34 80
139 80 158 0 8 9 29 19 47 11 17 25 51 32 75 16 52 50 108 67 108 6 0 15 0 20
1 4 0 13 11 20 25 11 21 20 24 65 24 43 0 55 4 67 22 8 13 14 29 15 37 1 29
50 52 116 55 59 2 155 -7 204 -19 37 -9 62 -106 31 -118 -8 -3 -23 -21 -32
-39 -9 -18 -21 -36 -26 -39 -17 -11 2 -50 28 -59 35 -14 31 -40 -6 -40 -16 0
-30 -4 -30 -9 0 -5 -22 -12 -49 -16 -55 -7 -65 -20 -55 -71 4 -21 2 -34 -4
-34 -7 0 -9 -18 -6 -46 2 -26 -2 -59 -10 -78 -9 -23 -11 -47 -6 -75 6 -36 5
-41 -9 -36 -12 4 -16 -2 -16 -27 0 -25 5 -33 28 -41 24 -8 27 -12 22 -40 l-6
-32 51 3 c76 6 102 -3 94 -32 -3 -13 -1 -27 5 -30 12 -8 -5 -45 -26 -59 -7 -4
-13 -17 -13 -28 0 -12 -10 -23 -25 -29 -21 -8 -25 -16 -25 -51 0 -26 -7 -50
-21 -67 -12 -16 -18 -34 -15 -48 3 -12 -1 -36 -10 -53 -10 -21 -14 -44 -10
-65 5 -23 2 -37 -9 -46 -10 -8 -15 -9 -15 -1 0 6 -7 11 -15 11 -8 0 -15 -8
-15 -18 0 -25 -19 -42 -47 -42 -13 0 -23 -6 -23 -13 0 -22 -20 -34 -46 -29
-13 2 -24 11 -24 18 0 19 -15 18 -34 -2 -15 -14 -16 -14 -16 5 0 16 -6 21 -27
21 -16 0 -50 12 -78 25 -27 14 -56 25 -63 25 -9 0 -11 7 -7 21 6 18 4 20 -14
14 -14 -4 -23 -1 -27 9 -3 9 -14 16 -24 16 -24 0 -46 26 -28 33 7 3 1 6 -14 6
-34 1 -37 -24 -8 -62 11 -14 20 -30 20 -35 0 -6 10 -12 23 -14 15 -2 22 -10
22 -24 0 -11 6 -28 13 -37 12 -14 11 -21 -8 -47 -12 -16 -28 -30 -36 -30 -8 0
-23 -6 -34 -13 -15 -8 -23 -9 -28 -1 -4 6 -19 14 -34 18 -22 5 -28 3 -28 -9 0
-9 -4 -14 -9 -10 -21 12 -23 -19 -3 -36 12 -9 22 -26 22 -38 0 -11 9 -25 20
-31 22 -12 25 -27 10 -50 -9 -13 -11 -13 -20 0 -7 11 -10 7 -10 -17 0 -23 -5
-33 -15 -33 -17 0 -21 -25 -5 -35 5 -3 6 -13 3 -21 -5 -13 -17 -15 -54 -12
-34 4 -49 1 -53 -8 -3 -8 -12 -11 -21 -8 -8 3 -15 1 -15 -5 0 -17 -40 -13 -46
4 -9 22 -23 18 -33 -8 -7 -17 -5 -26 10 -37 13 -10 17 -22 13 -38 -4 -13 -9
-21 -13 -19 -3 1 -28 13 -54 25 -29 13 -76 51 -120 96 -68 70 -74 80 -101 168
-16 51 -30 94 -32 96 -1 2 -12 -1 -23 -7 -13 -7 -18 -17 -14 -28 4 -10 2 -14
-5 -9 -6 3 -13 -2 -17 -13 -3 -10 -14 -21 -24 -24 -18 -4 -18 -3 0 28 11 18
35 49 54 68 43 44 53 71 47 119 -5 47 -23 49 -101 10 -64 -33 -107 -46 -137
-43 -50 5 -111 -181 -94 -283 7 -45 44 -134 84 -204 31 -53 122 -87 419 -157
l109 -25 1251 0 1252 0 62 33 c35 18 114 78 180 137 207 185 217 197 248 280
40 109 41 110 113 61 33 -23 77 -57 98 -76 21 -20 49 -38 61 -41 13 -4 23 -10
23 -15 0 -5 9 -9 19 -9 10 0 22 -7 25 -15 6 -17 66 -46 100 -48 21 -1 31 -7
64 -37 23 -20 69 -40 92 -40 10 0 35 -9 57 -19 61 -32 152 -61 157 -52 9 13
59 4 72 -13 6 -9 13 -13 16 -11 3 3 29 0 59 -7 30 -6 60 -11 68 -9 8 1 18 -3
23 -11 7 -10 11 -10 14 -1 4 9 12 6 27 -8 20 -19 22 -19 28 -1 9 22 37 47 46
38 3 -3 1 -6 -5 -6 -7 0 -12 -12 -12 -26 0 -21 4 -25 20 -21 11 3 22 1 25 -4
3 -4 21 -8 39 -7 18 1 38 -2 45 -6 7 -4 20 2 32 16 l20 23 -5 -26 c-5 -23 -2
-27 22 -32 15 -3 31 -2 36 3 5 5 20 0 35 -11 l26 -21 3 668 c2 527 -1 670 -10
677 -10 7 -10 10 0 14 15 6 17 133 2 133 -5 0 -10 -7 -10 -15 0 -8 -5 -15 -11
-15 -5 0 -7 5 -3 12 5 8 2 9 -9 5 -9 -3 -19 -2 -22 3 -4 6 -15 10 -27 10 -14
0 -18 5 -14 16 4 11 1 14 -12 12 -9 -2 -21 1 -27 8 -5 6 -49 21 -97 34 -49 13
-88 27 -88 32 0 5 -5 6 -10 3 -14 -9 -123 15 -183 40 -13 6 -20 2 -23 -13 -4
-14 -12 -18 -26 -14 -11 2 -15 8 -10 11 6 4 4 11 -4 19 -12 10 -14 10 -14 -3
0 -8 -7 -15 -15 -15 -8 0 -15 5 -15 11 0 5 5 7 10 4 6 -3 10 -2 10 4 0 14 -52
39 -68 34 -6 -3 -10 -9 -6 -14 3 -5 -4 -9 -15 -9 -12 0 -21 5 -21 10 0 6 6 10
13 10 8 0 7 4 -3 10 -21 14 -30 12 -30 -5 0 -20 -36 -19 -44 1 -5 14 -4 15 9
4 8 -7 15 -8 15 -2 0 5 -17 17 -37 25 -35 14 -39 13 -45 -2 -6 -15 -7 -15 -7
1 -1 11 -7 15 -21 11 -14 -4 -20 0 -20 11 0 10 -9 16 -25 16 -18 0 -23 -4 -19
-15 7 -17 -4 -19 -26 -5 -10 6 -11 10 -2 10 6 0 12 5 12 10 0 6 -9 10 -19 10
-11 0 -23 5 -26 10 -4 6 -12 10 -18 8 -15 -3 -60 12 -67 22 -7 11 -61 0 -54
-11 3 -5 -4 -9 -15 -9 -11 0 -25 8 -30 18 -9 15 -10 16 -11 0 0 -17 -36 -35
-47 -24 -4 3 -1 6 5 6 7 0 12 14 12 30 0 17 5 30 10 30 6 0 10 15 10 34 0 21
6 36 15 40 11 4 15 21 15 65 0 33 4 62 9 65 4 3 11 30 15 60 8 68 33 168 44
175 5 3 13 15 19 25 10 18 11 16 18 -12 3 -17 4 -36 0 -42 -3 -5 -1 -10 5 -10
13 0 43 64 46 99 2 13 11 45 20 72 14 39 15 50 5 63 -11 14 -11 16 4 16 21 0
30 10 92 104 47 70 204 371 218 416 4 14 13 32 20 40 18 22 82 204 100 285 9
39 20 80 26 91 6 12 12 65 12 118 2 71 5 96 15 96 10 0 12 -22 10 -96 l-3 -97
95 3 c52 2 130 3 173 4 42 0 77 5 77 10 0 6 5 5 11 -1 18 -18 39 -3 39 28 0
27 -30 56 -44 42 -3 -3 -7 11 -7 33 -3 65 -4 72 -10 78 -4 4 -9 -19 -13 -51
l-6 -58 -103 2 c-158 4 -162 4 -143 15 22 12 11 28 -19 28 -27 0 -35 17 -35
74 0 23 -4 46 -8 51 -40 46 -46 205 -24 604 10 200 10 258 -3 406 -15 175 -58
389 -92 460 -9 19 -14 38 -10 41 3 4 26 -3 49 -14 215 -101 366 -174 378 -182
46 -30 192 -91 188 -79 -4 11 -116 72 -198 108 -95 41 -346 164 -360 176 -8 7
-27 15 -42 19 -22 5 -35 23 -71 96 -41 82 -43 90 -25 90 11 0 77 -29 147 -64
69 -34 146 -72 171 -84 25 -11 108 -51 185 -89 208 -101 195 -95 195 -79 0 8
-23 23 -52 34 -29 11 -96 42 -148 67 -97 49 -207 102 -244 120 -12 6 -79 39
-150 75 l-129 65 -43 100 c-55 131 -163 316 -317 545 -20 30 -37 61 -37 68 0
67 -420 497 -612 627 -115 78 -144 95 -196 119 -29 14 -55 32 -58 40 -8 22
-60 50 -140 75 -38 12 -85 33 -105 46 -42 27 -125 50 -219 60 -36 4 -76 12
-90 17 -42 16 -182 38 -235 37 -27 -1 -97 -5 -156 -10z m-1249 -564 c-7 -8 -9
-15 -4 -15 4 0 -11 -14 -34 -31 -23 -17 -42 -34 -42 -38 0 -4 -7 -8 -15 -8 -8
0 -15 4 -15 8 0 12 92 94 102 92 4 -2 8 2 8 9 0 6 3 8 6 5 4 -4 1 -13 -6 -22z
m-66 -226 c16 -1 14 -3 -9 -10 -38 -12 -134 -1 -114 13 8 5 34 6 58 3 24 -3
53 -5 65 -6z m-64 -88 c0 -12 -21 -19 -37 -13 -22 8 -14 22 12 22 14 0 25 -4
25 -9z m-179 -731 l24 -19 -81 -1 c-88 0 -107 7 -72 27 36 19 102 16 129 -7z
m-126 -90 c-3 -5 -27 -10 -53 -10 -34 0 -43 3 -32 10 20 13 93 13 85 0z m1433
-1500 c20 -19 27 -37 23 -66 -1 -7 6 -38 16 -70 19 -65 19 -233 1 -268 -7 -13
-6 -21 3 -28 11 -7 11 -11 2 -15 -15 -6 -18 -53 -3 -53 6 0 10 -5 10 -11 0 -6
-7 -9 -15 -5 -13 4 -14 -11 -9 -109 5 -100 3 -121 -16 -177 -12 -34 -33 -79
-45 -98 -14 -21 -26 -59 -31 -95 -3 -33 -10 -70 -15 -82 -6 -16 -4 -27 7 -38
18 -18 10 -35 -15 -35 -11 0 -59 21 -107 47 -86 46 -91 47 -164 44 -83 -3 -96
-9 -105 -51 -18 -80 -69 -36 -70 60 0 79 9 104 65 165 53 58 59 78 35 109 -8
11 -15 32 -15 48 0 35 55 207 74 233 9 11 16 28 16 38 0 10 8 17 20 17 11 0
20 7 20 15 0 8 6 15 13 15 8 0 19 11 25 25 7 14 20 28 29 31 43 15 73 29 73
36 0 4 15 22 34 40 38 38 52 76 60 168 10 122 35 155 84 110z m2062 -30 c0 -5
-5 -10 -11 -10 -5 0 -7 5 -4 10 3 6 8 10 11 10 2 0 4 -4 4 -10z m75 -20 c3 -5
2 -10 -4 -10 -5 0 -13 5 -16 10 -3 6 -2 10 4 10 5 0 13 -4 16 -10z m-29 -15
c10 -8 27 -15 37 -15 9 0 17 -4 17 -9 0 -5 -10 -7 -21 -4 -16 4 -20 2 -17 -8
4 -9 19 -13 46 -12 40 2 42 0 48 -33 3 -19 4 -44 1 -56 -4 -13 0 -26 9 -32 10
-8 17 -49 25 -146 19 -246 -2 -595 -50 -801 -10 -46 -22 -109 -26 -139 -12
-96 -24 -130 -45 -130 -24 0 -25 -8 -6 -29 20 -22 9 -71 -15 -71 -10 0 -21 5
-24 10 -3 6 -1 10 4 10 6 0 11 7 11 15 0 9 -9 15 -22 15 -12 0 -30 8 -40 17
-13 12 -38 17 -86 18 -37 1 -74 4 -82 7 -23 9 -92 22 -120 23 -20 0 -27 7 -34
38 -9 34 -26 52 -26 26 0 -24 -19 4 -20 29 -2 76 -6 111 -12 117 -10 10 3 68
16 77 8 5 7 13 -2 28 -10 17 -10 20 4 20 11 0 14 5 10 16 -8 22 11 44 39 44
29 0 52 25 30 34 -28 10 -16 28 15 24 17 -3 33 -1 36 3 5 9 -36 35 -50 31 -5
-2 -6 4 -2 13 9 24 -14 108 -34 125 -24 21 -36 60 -17 60 18 0 69 58 62 70 -3
6 3 10 14 10 12 0 21 -4 21 -10 0 -5 9 -10 20 -10 11 0 20 -4 20 -9 0 -6 12
-6 30 1 23 8 35 7 48 -3 15 -13 16 -12 4 3 -8 9 -11 22 -7 29 6 8 10 7 17 -2
7 -10 11 -11 14 -2 3 6 16 24 29 39 22 26 24 37 24 121 -1 60 -5 91 -12 90
-19 -4 -18 29 2 52 16 18 18 28 10 54 -6 21 -5 33 1 35 5 2 10 19 10 37 0 19
5 37 10 40 6 3 10 19 10 35 0 23 4 28 18 24 16 -5 16 -5 0 6 -25 15 -22 56 4
74 28 20 29 20 54 1z m584 -271 c0 -8 -4 -12 -10 -9 -5 3 -10 10 -10 16 0 5 5
9 10 9 6 0 10 -7 10 -16z m-2122 -546 c6 -13 12 -32 14 -43 2 -12 10 -19 20
-17 9 1 19 -2 23 -8 10 -17 35 -12 28 6 -5 14 -3 14 14 3 19 -11 43 -67 43
-98 0 -6 -9 -11 -21 -11 -15 0 -19 5 -14 19 4 13 1 18 -12 18 -42 0 -52 6
-106 57 -31 30 -57 57 -57 61 0 12 26 34 41 35 9 0 21 -10 27 -22z m-124 6
c18 -7 12 -24 -10 -24 -8 0 -14 7 -14 15 0 17 2 18 24 9z m-625 -379 c16 -28
18 -41 11 -61 -6 -14 -10 -38 -9 -52 1 -39 -4 -54 -29 -89 -12 -17 -22 -39
-22 -49 0 -9 -7 -25 -15 -34 -12 -13 -12 -24 -4 -55 6 -21 14 -33 17 -28 5 7
16 3 33 -11 26 -22 26 -23 11 -72 -8 -27 -16 -54 -17 -61 -2 -6 -19 -14 -37
-18 -18 -4 -48 -19 -66 -33 -64 -49 -129 -72 -207 -74 -40 0 -77 2 -84 6 -16
10 -14 36 4 36 20 0 19 16 -2 32 -10 7 -19 24 -21 38 -1 14 -7 27 -12 28 -13
5 -13 69 0 77 6 3 10 18 10 32 0 16 7 27 20 30 11 3 20 10 20 17 0 6 17 27 38
46 20 20 45 48 55 63 9 15 26 27 37 27 15 0 29 19 35 50 6 32 20 50 36 50 11
0 18 4 15 9 -4 5 8 15 24 23 21 9 33 24 40 47 19 69 85 84 119 26z m251 -815
c0 -5 -4 -10 -10 -10 -5 0 -10 5 -10 10 0 6 5 10 10 10 6 0 10 -4 10 -10z
m2070 -170 c0 -5 -5 -10 -11 -10 -5 0 -7 5 -4 10 3 6 8 10 11 10 2 0 4 -4 4
-10z m-170 -24 c0 -14 -37 -52 -44 -45 -2 2 2 19 10 37 13 31 34 36 34 8z
m230 10 c0 -3 -4 -8 -10 -11 -5 -3 -10 -1 -10 4 0 6 5 11 10 11 6 0 10 -2 10
-4z m180 -50 c0 -3 -4 -8 -10 -11 -5 -3 -10 -1 -10 4 0 6 5 11 10 11 6 0 10
-2 10 -4z m154 -41 c3 -8 1 -15 -4 -15 -6 0 -10 7 -10 15 0 8 2 15 4 15 2 0 6
-7 10 -15z m-74 -11 c0 -2 -9 -4 -21 -4 -11 0 -18 4 -14 10 5 8 35 3 35 -6z
m40 -36 c0 -17 -23 -3 -26 16 -2 14 0 15 12 5 8 -6 14 -16 14 -21z m-301 -2
c9 -11 6 -12 -14 -8 -14 2 -22 8 -19 13 8 13 20 11 33 -5z m71 -1 c38 -20 43
-50 5 -33 -13 6 -22 15 -19 19 3 5 -2 9 -10 9 -8 0 -18 5 -21 10 -9 15 12 12
45 -5z m445 -5 c3 -5 -1 -10 -9 -10 -9 0 -16 5 -16 10 0 6 4 10 9 10 6 0 13
-4 16 -10z m-345 -20 c0 -5 -7 -10 -15 -10 -8 0 -15 5 -15 10 0 6 7 10 15 10
8 0 15 -4 15 -10z m-3325 -9 c3 -5 1 -12 -5 -16 -5 -3 -10 1 -10 9 0 18 6 21
15 7z m3123 -8 c-10 -2 -28 -2 -40 0 -13 2 -5 4 17 4 22 1 32 -1 23 -4z m243
-16 c-1 -12 -15 -9 -19 4 -3 6 1 10 8 8 6 -3 11 -8 11 -12z m69 3 c0 -5 -4
-10 -9 -10 -6 0 -13 5 -16 10 -3 6 1 10 9 10 9 0 16 -4 16 -10z m-150 -15 c0
-10 -9 -15 -27 -14 -17 1 -21 3 -10 6 9 2 17 9 17 14 0 5 5 9 10 9 6 0 10 -7
10 -15z m310 -25 c8 -5 12 -12 8 -15 -3 -4 -15 -1 -26 6 -16 10 -26 10 -45 2
-20 -9 -29 -9 -44 2 -16 13 -12 14 37 15 30 0 62 -4 70 -10z m-30 -30 c0 -5
-4 -10 -10 -10 -5 0 -10 5 -10 10 0 6 5 10 10 10 6 0 10 -4 10 -10z m159 -6
c2 -2 -10 -4 -27 -4 -18 0 -32 5 -32 10 0 9 47 4 59 -6z m-89 -4 c0 -5 -7 -10
-15 -10 -8 0 -15 5 -15 10 0 6 7 10 15 10 8 0 15 -4 15 -10z m-802 -57 c-4
-34 -19 -39 -48 -15 l-23 19 29 26 c24 22 30 24 37 12 4 -9 7 -27 5 -42z m161
21 c1 -1 -6 -13 -18 -25 -18 -20 -21 -20 -27 -6 -9 25 -27 9 -20 -18 7 -26
-10 -43 -26 -27 -6 6 -6 12 1 16 6 4 11 18 11 32 0 15 6 24 15 24 8 0 15 5 15
11 0 9 36 4 49 -7z m850 10 c17 -4 31 -10 31 -15 0 -13 -23 -11 -61 6 -36 15
-22 19 30 9z m66 -4 c3 -5 -1 -10 -10 -10 -9 0 -13 5 -10 10 3 6 8 10 10 10 2
0 7 -4 10 -10z m-1023 -44 l-20 -26 -6 23 c-4 14 0 26 11 35 27 20 38 -3 15
-32z m1128 -8 c0 -5 -5 -8 -10 -8 -14 0 -80 43 -80 53 0 9 89 -36 90 -45z
m-990 -22 c0 -36 -15 -47 -52 -38 -26 6 -22 27 8 51 37 29 44 26 44 -13z m77
-44 c-8 -90 -17 -90 -14 1 1 41 6 73 11 70 4 -3 6 -35 3 -71z m986 61 c-7 -2
-19 -2 -25 0 -7 3 -2 5 12 5 14 0 19 -2 13 -5z m-937 -21 c-3 -10 -8 -51 -10
-91 -2 -40 -7 -75 -10 -78 -3 -4 -4 25 -2 63 2 38 4 81 5 97 1 15 6 27 12 27
6 0 8 -8 5 -18z m-80 -27 c-15 -15 -16 -15 -16 3 0 10 3 22 7 26 4 3 11 2 16
-3 6 -6 4 -16 -7 -26z m-278 -20 c6 -14 9 -25 6 -25 -12 0 -53 38 -47 44 13
13 30 5 41 -19z m386 -39 c-4 -31 -9 -54 -12 -52 -2 3 -1 30 3 61 3 31 9 55
11 52 3 -2 2 -30 -2 -61z m203 28 c-3 -3 -12 -4 -19 -1 -8 3 -5 6 6 6 11 1 17
-2 13 -5z m-576 -42 c57 -22 141 -51 187 -66 l83 -28 -3 -40 -3 -40 93 -30
c50 -16 92 -33 92 -39 0 -14 -18 -11 -105 16 l-80 24 -25 -23 c-32 -28 -71
-54 -137 -88 -29 -14 -79 -49 -110 -76 -32 -27 -66 -52 -76 -55 -10 -4 -43
-23 -73 -43 -51 -34 -55 -39 -49 -68 4 -17 15 -37 26 -45 10 -7 19 -19 19 -25
0 -6 14 -22 30 -36 17 -14 30 -30 30 -36 0 -13 -114 -29 -131 -18 -8 5 -10 34
-7 89 3 45 2 88 -2 96 -5 8 -11 69 -15 135 l-6 122 30 61 c17 33 31 63 31 66
-2 10 85 185 91 185 3 0 53 -17 110 -38z m207 4 c14 -8 16 -46 4 -46 -27 0
-111 32 -115 45 -5 11 4 13 47 11 29 -2 58 -6 64 -10z m429 -60 c-8 -20 -41
-21 -57 -1 -14 17 -6 33 24 45 16 6 23 3 30 -11 5 -10 6 -25 3 -33z m-347 19
c4 3 6 -5 2 -17 -5 -21 -6 -21 -13 -2 -4 10 -8 24 -8 29 1 6 3 4 6 -3 2 -6 8
-10 13 -7z m230 5 c0 -5 -7 -10 -15 -10 -8 0 -15 5 -15 10 0 6 7 10 15 10 8 0
15 -4 15 -10z m170 -10 c0 -5 -4 -10 -10 -10 -5 0 -10 5 -10 10 0 6 5 10 10
10 6 0 10 -4 10 -10z m-316 -36 c3 -8 2 -12 -4 -9 -6 3 -10 10 -10 16 0 14 7
11 14 -7z m210 -130 c9 -3 16 -10 16 -16 0 -14 -43 -5 -48 10 -4 13 7 15 32 6z
m606 -224 c0 -5 -2 -10 -4 -10 -3 0 -8 5 -11 10 -3 6 -1 10 4 10 6 0 11 -4 11
-10z m-20 -41 c0 -5 -4 -7 -10 -4 -5 3 -10 1 -10 -6 0 -7 -3 -10 -6 -6 -8 7 4
27 17 27 5 0 9 -5 9 -11z m-4615 -319 c3 -5 -1 -10 -10 -10 -9 0 -13 5 -10 10
3 6 8 10 10 10 2 0 7 -4 10 -10z m3905 1 c0 -5 -7 -11 -15 -15 -15 -5 -20 5
-8 17 9 10 23 9 23 -2z m728 -38 c6 -10 6 -27 1 -38 -8 -19 -9 -19 -6 1 1 11
-4 28 -12 37 -8 11 -9 17 -3 17 6 0 15 -8 20 -17z m-4637 -13 c5 0 9 -4 9 -10
0 -14 -13 -12 -36 6 -17 14 -17 15 -1 10 10 -3 23 -6 28 -6z m3899 0 c0 -5 -4
-10 -10 -10 -5 0 -10 5 -10 10 0 6 5 10 10 10 6 0 10 -4 10 -10z m-40 -45 c0
-8 -4 -15 -10 -15 -5 0 -7 7 -4 15 4 8 8 15 10 15 2 0 4 -7 4 -15z m407 -27
c-3 -8 -6 -5 -6 6 -1 11 2 17 5 13 3 -3 4 -12 1 -19z m133 -17 c0 -5 -9 -19
-20 -32 l-21 -24 16 33 c15 31 25 41 25 23z m-400 -50 c0 -5 -7 -12 -16 -15
-14 -5 -15 -4 -4 9 14 17 20 19 20 6z m446 -18 c-10 -10 -19 5 -10 18 6 11 8
11 12 0 2 -7 1 -15 -2 -18z m41 -26 c-6 -15 -15 -27 -19 -27 -12 0 -10 8 8 36
21 31 28 26 11 -9z m-246 -20 c-13 -13 -26 -3 -16 12 3 6 11 8 17 5 6 -4 6
-10 -1 -17z m43 14 c3 -5 -1 -14 -8 -20 -12 -10 -13 -8 -9 8 6 23 9 25 17 12z
m93 -23 c-3 -8 -6 -5 -6 6 -1 11 2 17 5 13 3 -3 4 -12 1 -19z m63 -9 c0 -6 -4
-7 -10 -4 -5 3 -10 11 -10 16 0 6 5 7 10 4 6 -3 10 -11 10 -16z m106 -16 c-10
-10 -19 5 -10 18 6 11 8 11 12 0 2 -7 1 -15 -2 -18z m-126 -18 c0 -8 -4 -15
-10 -15 -5 0 -7 7 -4 15 4 8 8 15 10 15 2 0 4 -7 4 -15z m270 -4 c0 -4 -6 -8
-14 -8 -8 0 -12 6 -9 14 5 13 23 9 23 -6z m-57 -40 c-6 -23 -43 -60 -43 -43 0
7 4 12 8 12 5 0 14 11 20 25 14 30 22 33 15 6z"/>
<path d="M5760 3835 c32 -18 40 -18 40 0 0 10 -10 15 -32 15 l-33 -1 25 -14z"/>
<path d="M5811 3564 c0 -11 3 -14 6 -6 3 7 2 16 -1 19 -3 4 -6 -2 -5 -13z"/>
<path d="M5456 3175 c-8 -21 31 -40 50 -24 11 9 12 15 3 25 -15 18 -45 18 -53
-1z"/>
<path d="M3120 2405 c0 -28 4 -35 19 -35 20 0 31 18 31 51 0 14 -7 19 -25 19
-22 0 -25 -4 -25 -35z"/>
<path d="M3393 2353 c-18 -7 -16 -23 2 -23 8 0 15 7 15 15 0 8 -1 15 -2 14 -2
0 -9 -3 -15 -6z"/>
<path d="M2913 6999 c-5 -16 -11 -19 -30 -14 -36 9 -220 -82 -202 -100 6 -5
23 0 84 26 62 27 136 50 143 45 5 -3 18 2 30 10 18 12 20 19 12 35 -14 25 -30
24 -37 -2z"/>
<path d="M2081 4834 c0 -11 3 -14 6 -6 3 7 2 16 -1 19 -3 4 -6 -2 -5 -13z"/>
<path d="M2340 4605 c0 -8 7 -15 15 -15 8 0 15 7 15 15 0 8 -7 15 -15 15 -8 0
-15 -7 -15 -15z"/>
<path d="M2005 4280 c-3 -5 1 -10 9 -10 8 0 18 5 21 10 3 6 -1 10 -9 10 -8 0
-18 -4 -21 -10z"/>
<path d="M0 3390 l0 -269 73 -22 c104 -30 294 -87 350 -105 26 -8 52 -12 57
-9 6 4 10 2 10 -3 0 -5 42 -21 93 -36 50 -15 101 -31 112 -36 11 -5 79 -27
150 -49 72 -23 144 -46 160 -52 17 -6 57 -19 90 -29 33 -10 106 -34 163 -54
95 -33 151 -46 127 -28 -5 4 -11 18 -13 32 -1 13 -8 27 -14 31 -6 4 -8 14 -5
22 3 9 0 18 -7 20 -7 3 -16 18 -19 34 -4 19 -19 36 -46 53 -22 13 -46 37 -52
53 -7 17 -17 26 -25 23 -7 -3 -16 0 -20 6 -4 6 -23 8 -45 5 -22 -3 -39 -1 -39
4 0 5 13 9 29 9 36 0 61 9 61 22 0 6 -15 8 -37 4 -29 -5 -35 -4 -23 4 12 9 10
11 -13 7 -15 -2 -27 0 -27 4 0 15 -48 10 -54 -6 -4 -12 -15 -14 -48 -9 -24 4
-45 11 -46 16 -2 5 -9 5 -15 0 -17 -13 -58 -22 -51 -11 3 5 -11 9 -30 9 -20 0
-36 4 -36 9 0 12 49 20 56 9 3 -4 9 -6 14 -3 5 3 11 1 15 -5 3 -5 11 -10 17
-10 6 0 1 11 -11 24 -17 18 -19 25 -9 30 7 3 0 3 -17 0 -23 -4 -27 -3 -15 5
12 9 10 11 -12 11 -29 0 -46 -15 -26 -23 7 -2 10 -8 5 -12 -4 -5 -18 -2 -32 5
-20 10 -28 11 -37 2 -9 -9 -7 -12 9 -12 12 0 25 -4 28 -10 3 -6 -5 -10 -18
-10 -24 0 -42 23 -32 40 2 4 19 11 37 15 31 7 31 8 8 12 -14 2 -34 8 -45 13
-51 22 -271 80 -306 80 -11 0 -19 6 -19 14 0 10 11 12 45 8 26 -2 45 0 45 5 0
5 45 16 100 23 54 7 97 17 94 22 -3 4 2 8 10 8 9 0 16 -6 16 -14 0 -9 8 -12
28 -8 l27 6 -25 7 c-28 8 -28 8 55 15 33 3 70 12 82 20 12 7 29 11 37 8 11 -4
16 0 16 11 0 13 3 15 13 7 7 -6 31 -9 52 -6 22 3 50 7 63 8 32 5 34 9 18 47
-9 19 -15 29 -16 22 0 -7 -7 -10 -15 -7 -19 8 -10 24 13 24 10 0 23 9 30 21
12 19 11 20 -7 14 -15 -4 -28 1 -45 18 -32 33 -74 41 -127 27 -31 -9 -44 -9
-47 -1 -2 7 -12 5 -27 -5 -13 -8 -36 -14 -52 -12 l-28 3 23 23 c13 13 17 22
10 21 -7 -2 -29 4 -48 13 -34 15 -152 28 -300 33 -41 2 -104 12 -140 24 -36
11 -83 20 -105 20 -58 -1 -114 7 -164 25 -24 9 -45 16 -47 16 -2 0 -4 -121 -4
-270z m333 114 c-16 -12 -7 -14 67 -16 47 -1 112 -1 146 0 45 2 64 -1 74 -13
11 -13 9 -15 -14 -15 -29 0 -35 -16 -8 -23 13 -4 11 -5 -5 -6 -13 0 -23 4 -23
10 0 6 -7 8 -16 5 -8 -3 -24 -1 -35 5 -24 12 -59 3 -59 -16 0 -7 -10 -15 -22
-17 -30 -6 -128 -3 -153 5 -11 3 -22 6 -25 7 -3 0 8 8 23 16 15 8 25 19 22 24
-8 13 25 61 37 54 5 -3 1 -12 -9 -20z m-248 -14 c3 -5 1 -10 -4 -10 -6 0 -11
5 -11 10 0 6 2 10 4 10 3 0 8 -4 11 -10z m129 -15 c4 -10 -1 -15 -14 -15 -20
0 -26 11 -13 23 10 11 20 8 27 -8z m293 -101 c-3 -3 -12 -4 -19 -1 -8 3 -5 6
6 6 11 1 17 -2 13 -5z m68 -14 c17 -7 15 -9 -12 -9 -17 -1 -35 4 -38 9 -7 12
22 12 50 0z m-245 -89 c0 -6 -26 -7 -75 -1 -17 2 -16 3 5 9 27 8 70 3 70 -8z
m-280 -6 c0 -8 -4 -15 -9 -15 -5 0 -11 7 -15 15 -3 9 0 15 9 15 8 0 15 -7 15
-15z m60 -25 c0 -5 -5 -10 -11 -10 -5 0 -7 5 -4 10 3 6 8 10 11 10 2 0 4 -4 4
-10z m40 0 c12 -8 11 -10 -7 -10 -13 0 -23 5 -23 10 0 13 11 13 30 0z m65 -10
c3 -5 -1 -10 -9 -10 -9 0 -16 5 -16 10 0 6 4 10 9 10 6 0 13 -4 16 -10z m215
-72 c0 -5 -9 -4 -20 2 -11 6 -18 15 -14 21 6 11 34 -7 34 -23z m164 -14 c9
-23 8 -24 -13 -24 -14 0 -18 5 -14 20 6 24 19 26 27 4z m124 -37 c28 7 28 -7
1 -30 -19 -17 -21 -17 -47 13 -14 16 -33 30 -42 30 -13 0 -13 2 -1 9 10 7 23
4 41 -9 16 -11 35 -17 48 -13z m205 -104 c-7 -2 -19 -2 -25 0 -7 3 -2 5 12 5
14 0 19 -2 13 -5z m77 -8 c0 -1 -12 -2 -26 -2 -17 0 -22 2 -13 7 10 7 39 3 39
-5z m77 -32 c-3 -10 -5 -4 -5 12 0 17 2 24 5 18 2 -7 2 -21 0 -30z m48 -13
c-3 -5 -12 -7 -20 -3 -21 7 -19 13 6 13 11 0 18 -4 14 -10z m30 -10 c3 -5 1
-10 -4 -10 -6 0 -11 5 -11 10 0 6 2 10 4 10 3 0 8 -4 11 -10z m35 -10 c0 -5
-2 -10 -4 -10 -3 0 -8 5 -11 10 -3 6 -1 10 4 10 6 0 11 -4 11 -10z"/>
<path d="M6706 3590 c-14 -98 -13 -124 6 -128 11 -2 18 5 20 20 2 17 8 22 26
20 16 -2 22 2 22 17 0 15 -5 19 -24 15 -22 -4 -24 0 -33 54 l-9 57 -8 -55z"/>
<path d="M6420 3589 c0 -5 5 -7 10 -4 6 3 10 8 10 11 0 2 -4 4 -10 4 -5 0 -10
-5 -10 -11z"/>
<path d="M1063 3558 c3 -9 1 -18 -6 -21 -6 -2 -4 -6 6 -10 19 -7 23 10 6 33
-9 13 -10 13 -6 -2z"/>
<path d="M1080 3310 c0 -12 8 -12 35 0 18 8 17 9 -7 9 -16 1 -28 -3 -28 -9z"/>
<path d="M1005 3291 c-6 -5 -26 -11 -45 -14 -30 -3 -29 -4 12 -5 50 -2 78 5
78 19 0 12 -33 12 -45 0z"/>
<path d="M888 3263 c6 -2 18 -2 25 0 6 3 1 5 -13 5 -14 0 -19 -2 -12 -5z"/>
<path d="M630 3229 c-25 -4 -53 -5 -62 -2 -10 2 -18 0 -18 -6 0 -14 117 -14
125 0 10 15 5 16 -45 8z"/>
<path d="M718 3233 c7 -3 16 -2 19 1 4 3 -2 6 -13 5 -11 0 -14 -3 -6 -6z"/>
<path d="M925 3060 c-7 -12 12 -12 40 0 18 8 17 9 -7 9 -15 1 -30 -3 -33 -9z"/>
<path d="M1008 3053 c6 -2 18 -2 25 0 6 3 1 5 -13 5 -14 0 -19 -2 -12 -5z"/>
<path d="M1198 2983 c7 -3 16 -2 19 1 4 3 -2 6 -13 5 -11 0 -14 -3 -6 -6z"/>
<path d="M1319 2913 c27 -92 74 -149 134 -163 20 -4 38 -6 41 -3 6 7 -14 63
-24 63 -4 0 -39 29 -78 65 -38 36 -72 65 -75 65 -3 0 -2 -12 2 -27z"/>
<path d="M6592 2620 c0 -14 2 -19 5 -12 2 6 2 18 0 25 -3 6 -5 1 -5 -13z"/>
<path d="M6580 2340 c0 -5 5 -10 10 -10 6 0 10 5 10 10 0 6 -4 10 -10 10 -5 0
-10 -4 -10 -10z"/>
<path d="M6261 2304 c0 -11 3 -14 6 -6 3 7 2 16 -1 19 -3 4 -6 -2 -5 -13z"/>
<path d="M53 1973 c9 -2 23 -2 30 0 6 3 -1 5 -18 5 -16 0 -22 -2 -12 -5z"/>
<path d="M43 1943 c9 -2 23 -2 30 0 6 3 -1 5 -18 5 -16 0 -22 -2 -12 -5z"/>
<path d="M120 1900 c0 -5 4 -10 9 -10 6 0 13 5 16 10 3 6 -1 10 -9 10 -9 0
-16 -4 -16 -10z"/>
<path d="M5685 1901 c-3 -5 -1 -12 5 -16 5 -3 10 1 10 9 0 18 -6 21 -15 7z"/>
<path d="M6672 1860 c0 -14 2 -19 5 -12 2 6 2 18 0 25 -3 6 -5 1 -5 -13z"/>
<path d="M5691 1854 c0 -11 3 -14 6 -6 3 7 2 16 -1 19 -3 4 -6 -2 -5 -13z"/>
<path d="M25 1850 c-3 -5 0 -10 7 -11 7 0 4 -5 -7 -10 -18 -8 -18 -8 5 -7 14
1 30 0 35 -3 6 -3 24 -2 40 2 30 7 30 7 -6 8 -23 1 -39 7 -43 16 -6 17 -22 20
-31 5z"/>
<path d="M175 1835 l-30 -14 33 -1 c22 0 32 5 32 15 0 8 -1 15 -2 14 -2 0 -16
-7 -33 -14z"/>
<path d="M6405 1791 c-6 -11 9 -23 19 -14 9 9 7 23 -3 23 -6 0 -12 -4 -16 -9z"/>
<path d="M6443 1705 c0 -44 2 -61 4 -37 2 23 2 59 0 80 -2 20 -4 1 -4 -43z"/>
<path d="M6672 1740 c0 -19 2 -27 5 -17 2 9 2 25 0 35 -3 9 -5 1 -5 -18z"/>
<path d="M13 1723 c9 -2 25 -2 35 0 9 3 1 5 -18 5 -19 0 -27 -2 -17 -5z"/>
<path d="M75 1710 c3 -5 13 -10 21 -10 8 0 14 5 14 10 0 6 -9 10 -21 10 -11 0
-17 -4 -14 -10z"/>
<path d="M141 1711 c-8 -6 -9 -11 -3 -15 6 -3 14 -1 17 5 9 14 2 20 -14 10z"/>
<path d="M23 1692 c-14 -2 -23 -10 -22 -20 0 -11 3 -12 6 -4 6 15 40 16 45 1
2 -6 12 -7 26 -2 22 8 22 9 -5 18 -16 6 -38 9 -50 7z"/>
<path d="M214 1649 c-3 -5 6 -9 21 -9 14 0 28 -7 31 -15 4 -8 10 -15 15 -15 5
0 4 9 -3 19 -13 21 -55 34 -64 20z"/>
<path d="M100 1616 c0 -12 20 -36 30 -36 15 0 4 39 -12 43 -10 3 -18 0 -18 -7z"/>
<path d="M195 1580 c3 -5 8 -10 11 -10 2 0 4 5 4 10 0 6 -5 10 -11 10 -5 0 -7
-4 -4 -10z"/>
<path d="M3110 1312 c0 -12 5 -24 12 -28 6 -4 8 -3 4 4 -3 5 -1 12 5 14 7 2 5
9 -5 17 -14 12 -16 11 -16 -7z"/>
<path d="M3175 850 c-3 -5 -1 -10 4 -10 6 0 11 5 11 10 0 6 -2 10 -4 10 -3 0
-8 -4 -11 -10z"/>
<path d="M1580 671 c0 -5 5 -13 10 -16 6 -3 10 -2 10 4 0 5 -4 13 -10 16 -5 3
-10 2 -10 -4z"/>
</g>
</svg>
